<svg width="23" height="26" viewBox="0 0 23 26" fill="none" xmlns="http://www.w3.org/2000/svg">
<path d="M7.875 11.75H5.45833V14.25H7.875V11.75ZM12.7083 11.75H10.2917V14.25H12.7083V11.75ZM17.5417 11.75H15.125V14.25H17.5417V11.75ZM19.9583 3H18.75V0.5H16.3333V3H6.66667V0.5H4.25V3H3.04167C1.70042 3 0.637083 4.125 0.637083 5.5L0.625 23C0.625 24.375 1.70042 25.5 3.04167 25.5H19.9583C21.2875 25.5 22.375 24.375 22.375 23V5.5C22.375 4.125 21.2875 3 19.9583 3ZM19.9583 23H3.04167V9.25H19.9583V23Z" fill="black" fill-opacity="0.5"/>
<path d="M5.45833 16.125H7.875V18.625H5.45833V16.125Z" fill="black" fill-opacity="0.5"/>
<path d="M10.2917 16.125H12.7083V18.625H10.2917V16.125Z" fill="black" fill-opacity="0.5"/>
<path d="M15.125 16.125H17.5417V18.625H15.125V16.125Z" fill="black" fill-opacity="0.5"/>
</svg>
